HIERARCHY
ROOT hip
{
  OFFSET 0 90.174 2.4664
  CHANNELS 6 Xposition Yposition Zposition Zrotation Xrotation Yrotation
  JOINT abdomen
  {
    OFFSET 0 -1.186 -1.5018
    CHANNELS 6 Xposition Yposition Zposition Zrotation Xrotation Yrotation
    JOINT abdomen2
    {
      OFFSET 0 9.964 0.2134
      CHANNELS 6 Xposition Yposition Zposition Zrotation Xrotation Yrotation
      JOINT chest
      {
        OFFSET 0 13.134 -3.2573
        CHANNELS 6 Xposition Yposition Zposition Zrotation Xrotation Yrotation
        JOINT neck
        {
          OFFSET 0 20.686 -1.6905
          CHANNELS 6 Xposition Yposition Zposition Zrotation Xrotation Yrotation
          JOINT head
          {
            OFFSET 0 7.238 -0.1237
            CHANNELS 6 Xposition Yposition Zposition Zrotation Xrotation Yrotation
            End Site
            {
              OFFSET 0 0 0
            }
          }
        }
        JOINT lCollar
        {
          OFFSET 1.7069 20.075 5.0056
          CHANNELS 6 Xposition Yposition Zposition Zrotation Xrotation Yrotation
          JOINT lShldr
          {
            OFFSET 13.6458 -0.047 -4.849
            CHANNELS 6 Xposition Yposition Zposition Zrotation Xrotation Yrotation
            JOINT lForeArm
            {
              OFFSET 28.3255 -0.9759 2.2888
              CHANNELS 6 Xposition Yposition Zposition Zrotation Xrotation Yrotation
              JOINT lHand
              {
                OFFSET 22.1583 -0.53 10.8316
                CHANNELS 6 Xposition Yposition Zposition Zrotation Xrotation Yrotation
                JOINT lThumb1
                {
                  OFFSET 0.786 0.112 2.5817
                  CHANNELS 6 Xposition Yposition Zposition Zrotation Xrotation Yrotation
                  JOINT lThumb2
                  {
                    OFFSET 0.3601 -0.878 4.2331
                    CHANNELS 6 Xposition Yposition Zposition Zrotation Xrotation Yrotation
                    JOINT lThumb2_End
                    {
                      OFFSET 1.8127 -1.216 2.2227
                      CHANNELS 6 Xposition Yposition Zposition Zrotation Xrotation Yrotation
                      End Site
                      {
                        OFFSET 0.0181 -0.0122 0.0222
                      }
                    }
                  }
                }
                JOINT lCarpal1
                {
                  OFFSET 0.9571 1.114 1.7695
                  CHANNELS 6 Xposition Yposition Zposition Zrotation Xrotation Yrotation
                  JOINT lIndex1
                  {
                    OFFSET 4.1246 0.487 4.1451
                    CHANNELS 6 Xposition Yposition Zposition Zrotation Xrotation Yrotation
                    JOINT lIndex2
                    {
                      OFFSET 3.4052 -1.454 2.7682
                      CHANNELS 6 Xposition Yposition Zposition Zrotation Xrotation Yrotation
                      JOINT lIndex2_End
                      {
                        OFFSET 1.4531 -1.795 1.2713
                        CHANNELS 6 Xposition Yposition Zposition Zrotation Xrotation Yrotation
                        End Site
                        {
                          OFFSET 0.0145 -0.0179 0.0127
                        }
                      }
                    }
                  }
                  JOINT lMid1
                  {
                    OFFSET 5.6954 0.21 2.1184
                    CHANNELS 6 Xposition Yposition Zposition Zrotation Xrotation Yrotation
                    JOINT lMid2
                    {
                      OFFSET 3.9766 -1.54 2.3863
                      CHANNELS 6 Xposition Yposition Zposition Zrotation Xrotation Yrotation
                      JOINT lMid2_End
                      {
                        OFFSET 1.4042 -1.926 1.125
                        CHANNELS 6 Xposition Yposition Zposition Zrotation Xrotation Yrotation
                        End Site
                        {
                          OFFSET 0.014 -0.0193 0.0113
                        }
                      }
                    }
                  }
                }
                JOINT lCarpal2
                {
                  OFFSET 2.0956 0.66 -0.3894
                  CHANNELS 6 Xposition Yposition Zposition Zrotation Xrotation Yrotation
                  JOINT lRing1
                  {
                    OFFSET 5.0395 -0.09 2.4971
                    CHANNELS 6 Xposition Yposition Zposition Zrotation Xrotation Yrotation
                    JOINT lRing2
                    {
                      OFFSET 3.7921 -1.552 1.4806
                      CHANNELS 6 Xposition Yposition Zposition Zrotation Xrotation Yrotation
                      JOINT lRing2_End
                      {
                        OFFSET 1.4655 -1.808 0.9609
                        CHANNELS 6 Xposition Yposition Zposition Zrotation Xrotation Yrotation
                        End Site
                        {
                          OFFSET 0.0147 -0.0181 0.0096
                        }
                      }
                    }
                  }
                  JOINT lPinky1
                  {
                    OFFSET 4.9141 -1.269 0.3591
                    CHANNELS 6 Xposition Yposition Zposition Zrotation Xrotation Yrotation
                    JOINT lPinky2
                    {
                      OFFSET 3.1477 -1.685 0.8462
                      CHANNELS 6 Xposition Yposition Zposition Zrotation Xrotation Yrotation
                      JOINT lPinky2_End
                      {
                        OFFSET 0.8055 -1.585 0.7955
                        CHANNELS 6 Xposition Yposition Zposition Zrotation Xrotation Yrotation
                        End Site
                        {
                          OFFSET 0.0081 -0.0158 0.008
                        }
                      }
                    }
                  }
                }
              }
            }
          }
        }
        JOINT rCollar
        {
          OFFSET -1.7069 20.075 5.0056
          CHANNELS 6 Xposition Yposition Zposition Zrotation Xrotation Yrotation
          JOINT rShldr
          {
            OFFSET -13.6458 -0.047 -4.849
            CHANNELS 6 Xposition Yposition Zposition Zrotation Xrotation Yrotation
            JOINT rForeArm
            {
              OFFSET -28.3255 -0.9759 2.2888
              CHANNELS 6 Xposition Yposition Zposition Zrotation Xrotation Yrotation
              JOINT rHand
              {
                OFFSET -22.1583 -0.53 10.8316
                CHANNELS 6 Xposition Yposition Zposition Zrotation Xrotation Yrotation
                JOINT rThumb1
                {
                  OFFSET -0.786 0.112 2.5817
                  CHANNELS 6 Xposition Yposition Zposition Zrotation Xrotation Yrotation
                  JOINT rThumb2
                  {
                    OFFSET -0.3601 -0.878 4.2331
                    CHANNELS 6 Xposition Yposition Zposition Zrotation Xrotation Yrotation
                    JOINT rThumb2_End
                    {
                      OFFSET -1.8127 -1.216 2.2227
                      CHANNELS 6 Xposition Yposition Zposition Zrotation Xrotation Yrotation
                      End Site
                      {
                        OFFSET -0.0181 -0.0122 0.0222
                      }
                    }
                  }
                }
                JOINT rCarpal1
                {
                  OFFSET -0.9571 1.114 1.7695
                  CHANNELS 6 Xposition Yposition Zposition Zrotation Xrotation Yrotation
                  JOINT rIndex1
                  {
                    OFFSET -4.1246 0.487 4.1451
                    CHANNELS 6 Xposition Yposition Zposition Zrotation Xrotation Yrotation
                    JOINT rIndex2
                    {
                      OFFSET -3.4052 -1.454 2.7682
                      CHANNELS 6 Xposition Yposition Zposition Zrotation Xrotation Yrotation
                      JOINT rIndex2_End
                      {
                        OFFSET -1.4531 -1.795 1.2713
                        CHANNELS 6 Xposition Yposition Zposition Zrotation Xrotation Yrotation
                        End Site
                        {
                          OFFSET -0.0145 -0.018 0.0127
                        }
                      }
                    }
                  }
                  JOINT rMid1
                  {
                    OFFSET -5.6954 0.21 2.1184
                    CHANNELS 6 Xposition Yposition Zposition Zrotation Xrotation Yrotation
                    JOINT rMid2
                    {
                      OFFSET -3.9766 -1.54 2.3863
                      CHANNELS 6 Xposition Yposition Zposition Zrotation Xrotation Yrotation
                      JOINT rMid2_End
                      {
                        OFFSET -1.4042 -1.926 1.125
                        CHANNELS 6 Xposition Yposition Zposition Zrotation Xrotation Yrotation
                        End Site
                        {
                          OFFSET -0.014 -0.0193 0.0113
                        }
                      }
                    }
                  }
                }
                JOINT rCarpal2
                {
                  OFFSET -2.0956 0.66 -0.3894
                  CHANNELS 6 Xposition Yposition Zposition Zrotation Xrotation Yrotation
                  JOINT rRing1
                  {
                    OFFSET -5.0395 -0.09 2.4971
                    CHANNELS 6 Xposition Yposition Zposition Zrotation Xrotation Yrotation
                    JOINT rRing2
                    {
                      OFFSET -3.7921 -1.552 1.4806
                      CHANNELS 6 Xposition Yposition Zposition Zrotation Xrotation Yrotation
                      JOINT rRing2_End
                      {
                        OFFSET -1.4655 -1.808 0.9609
                        CHANNELS 6 Xposition Yposition Zposition Zrotation Xrotation Yrotation
                        End Site
                        {
                          OFFSET -0.0147 -0.0181 0.0096
                        }
                      }
                    }
                  }
                  JOINT rPinky1
                  {
                    OFFSET -4.9141 -1.269 0.3592
                    CHANNELS 6 Xposition Yposition Zposition Zrotation Xrotation Yrotation
                    JOINT rPinky2
                    {
                      OFFSET -3.1477 -1.685 0.8462
                      CHANNELS 6 Xposition Yposition Zposition Zrotation Xrotation Yrotation
                      JOINT rPinky2_End
                      {
                        OFFSET -0.8055 -1.585 0.7955
                        CHANNELS 6 Xposition Yposition Zposition Zrotation Xrotation Yrotation
                        End Site
                        {
                          OFFSET -0.0081 -0.0158 0.008
                        }
                      }
                    }
                  }
                }
              }
            }
          }
        }
      }
    }
  }
  JOINT lThigh
  {
    OFFSET 8.367 -8.2066 0.5982
    CHANNELS 6 Xposition Yposition Zposition Zrotation Xrotation Yrotation
    JOINT lShin
    {
      OFFSET 2.1923 -43.463 -0.4932
      CHANNELS 6 Xposition Yposition Zposition Zrotation Xrotation Yrotation
      JOINT lFoot
      {
        OFFSET 0.7333 -45.8593 -2.6451
        CHANNELS 6 Xposition Yposition Zposition Zrotation Xrotation Yrotation
        End Site
        {
          OFFSET 2.6618 -4.2699 12.3931
        }
      }
    }
  }
  JOINT rThigh
  {
    OFFSET -8.367 -8.2066 0.5982
    CHANNELS 6 Xposition Yposition Zposition Zrotation Xrotation Yrotation
    JOINT rShin
    {
      OFFSET -2.1923 -43.463 -0.4931
      CHANNELS 6 Xposition Yposition Zposition Zrotation Xrotation Yrotation
      JOINT rFoot
      {
        OFFSET -0.7333 -45.8593 -2.6451
        CHANNELS 6 Xposition Yposition Zposition Zrotation Xrotation Yrotation
        End Site
        {
          OFFSET -2.6618 -4.2699 12.3931
        }
      }
    }
  }
}
MOTION
Frames:	4
Frame Time:	0.0333333
-0.00118441 4.32642 74.4879 -180 -85.9956 -180 0 -1.186 -1.5018 -0.00142235 0.382742 -0.0900079 8.67362e-019 9.964 0.2134 -0.00224344 0.765501 -0.180012 -5.20417e-018 13.134 -3.2573 -0.00224342 0.765502 -0.180012 -1.73472e-018 20.686 -1.6905 -2.06408e-005 12.9998 9.95863e-005 -1.73472e-018 7.238 -0.1237 3.69338e-008 -1.34719 9.94596e-009 1.7069 20.075 5.0056 -0.680028 -4.16265 1.99073 13.6458 -0.047 -4.849 -81.4331 0.362854 3.55488 28.3255 -0.9759 2.2888 2.14307 -2.33103 -29.0247 22.1583 -0.53 10.8316 -16.1348 4.60365 6.93078 0.786 0.112 2.5817 -5.10909e-007 5.60756e-007 1.12841e-006 0.3601 -0.878 4.2331 -3.23231e-006 1.91119e-006 -3.8446e-006 1.8127 -1.216 2.2227 7.25065e-007 2.43237e-006 3.31653e-006 0.9571 1.114 1.7695 3.97569e-016 1.59028e-015 -0 4.1246 0.487 4.1451 -5.10909e-007 5.60756e-007 1.12841e-006 3.4052 -1.454 2.7682 -3.23231e-006 1.91119e-006 -3.8446e-006 1.4531 -1.795 1.2713 7.25065e-007 2.43237e-006 3.31653e-006 5.6954 0.21 2.1184 -5.10909e-007 5.60756e-007 1.12841e-006 3.9766 -1.54 2.3863 -3.23231e-006 1.91119e-006 -3.8446e-006 1.4042 -1.926 1.125 7.25065e-007 2.43237e-006 3.31653e-006 2.0956 0.66 -0.3894 3.97569e-016 1.59028e-015 -0 5.0395 -0.09 2.4971 -5.10909e-007 5.60756e-007 1.12841e-006 3.7921 -1.552 1.4806 -3.23231e-006 1.91119e-006 -3.8446e-006 1.4655 -1.808 0.9609 7.25065e-007 2.43237e-006 3.31653e-006 4.9141 -1.269 0.3591 -5.10909e-007 5.60756e-007 1.12841e-006 3.1477 -1.685 0.8462 -3.23231e-006 1.91119e-006 -3.8446e-006 0.8055 -1.585 0.7955 7.25065e-007 2.43237e-006 3.31653e-006 -1.7069 20.075 5.0056 2.23771 -0.0794481 -3.11299 -13.6458 -0.047 -4.849 81.1907 0.571569 -4.04449 -28.3255 -0.9759 2.2888 0.12965 0.420197 49.3714 -22.1583 -0.53 10.8316 15.0989 6.44635 -2.68242 -0.786 0.112 2.5817 7.95139e-016 -7.95139e-016 3.18055e-015 -0.3601 -0.878 4.2331 -8.71429e-008 2.92167e-006 -1.73228e-006 -1.8127 -1.216 2.2227 -9.34288e-015 -1.14301e-014 -6.36111e-015 -0.9571 1.114 1.7695 -7.95139e-016 1.98785e-016 3.18055e-015 -4.1246 0.487 4.1451 -4.96962e-016 -2.48481e-015 1.90833e-014 -3.4052 -1.454 2.7682 -8.71429e-008 2.92167e-006 -1.73228e-006 -1.4531 -1.795 1.2713 -1.00386e-014 -1.04362e-014 -9.54166e-015 -5.6954 0.21 2.1184 -4.96962e-016 -2.48481e-015 1.90833e-014 -3.9766 -1.54 2.3863 -8.71429e-008 2.92167e-006 -1.73228e-006 -1.4042 -1.926 1.125 -1.00386e-014 -1.04362e-014 -9.54166e-015 -2.0956 0.66 -0.3894 -7.95139e-016 1.98785e-016 3.18055e-015 -5.0395 -0.09 2.4971 -4.96962e-016 -2.48481e-015 1.90833e-014 -3.7921 -1.552 1.4806 -8.71429e-008 2.92167e-006 -1.73228e-006 -1.4655 -1.808 0.9609 -1.00386e-014 -1.04362e-014 -9.54166e-015 -4.9141 -1.269 0.3592 -4.96962e-016 -2.48481e-015 1.90833e-014 -3.1477 -1.685 0.8462 -8.71429e-008 2.92167e-006 -1.73228e-006 -0.8055 -1.585 0.7955 -1.00386e-014 -1.04362e-014 -9.54166e-015 8.367 -8.2066 0.5982 36.8953 -33.5791 32.9236 2.1923 -43.463 -0.4932 104.753 64.4108 -108.874 0.7333 -45.8593 -2.6451 8.01707 20.1207 -9.04046 -8.367 -8.2066 0.5982 -37.1663 -33.5949 -33.289 -2.1923 -43.463 -0.4931 -104.751 64.4118 108.877 -0.7333 -45.8593 -2.6451 -8.2973 20.0766 9.23412 
-0.00109858 4.32565 74.4876 -180 -85.9956 -180 0 -1.186 -1.5018 -0.00129066 0.337624 -0.0900086 1.30104e-018 9.964 0.2134 -0.00205092 0.675286 -0.180014 0 13.134 -3.2573 -0.00205086 0.675271 -0.180014 3.46945e-018 20.686 -1.6905 -3.13162e-005 13.7515 0.000144659 3.46945e-018 7.238 -0.1237 -1.13149e-008 -0.481965 -1.69111e-008 1.7069 20.075 5.0056 -1.29536 -3.84172 1.80576 13.6458 -0.047 -4.849 -80.9868 0.298877 3.40832 28.3255 -0.9759 2.2888 2.23916 -2.44587 -28.6018 22.1583 -0.53 10.8316 -16.0575 4.74649 6.58842 0.786 0.112 2.5817 5.11045e-007 -5.6116e-007 -1.12834e-006 0.3601 -0.878 4.2331 1.39149e-015 -5.96354e-016 -0 1.8127 -1.216 2.2227 9.93923e-016 3.97569e-016 3.18055e-015 0.9571 1.114 1.7695 7.95139e-016 -3.47873e-015 3.18055e-015 4.1246 0.487 4.1451 5.11045e-007 -5.6116e-007 -1.12834e-006 3.4052 -1.454 2.7682 1.78906e-015 -7.95139e-016 -0 1.4531 -1.795 1.2713 -5.96354e-016 -1.68967e-015 -0 5.6954 0.21 2.1184 5.11045e-007 -5.6116e-007 -1.12834e-006 3.9766 -1.54 2.3863 1.78906e-015 -7.95139e-016 -0 1.4042 -1.926 1.125 -5.96354e-016 -1.68967e-015 -0 2.0956 0.66 -0.3894 7.95139e-016 -3.47873e-015 3.18055e-015 5.0395 -0.09 2.4971 5.11045e-007 -5.6116e-007 -1.12834e-006 3.7921 -1.552 1.4806 1.78906e-015 -7.95139e-016 -0 1.4655 -1.808 0.9609 -5.96354e-016 -1.68967e-015 -0 4.9141 -1.269 0.3591 5.11045e-007 -5.6116e-007 -1.12834e-006 3.1477 -1.685 0.8462 1.78906e-015 -7.95139e-016 -0 0.8055 -1.585 0.7955 -5.96354e-016 -1.68967e-015 -0 -1.7069 20.075 5.0056 2.71553 -0.101429 -2.85481 -13.6458 -0.047 -4.849 80.7797 0.493023 -3.79555 -28.3255 -0.9759 2.2888 0.0456028 0.233195 48.7594 -22.1583 -0.53 10.8316 15.0989 6.44635 -2.68242 -0.786 0.112 2.5817 3.23e-006 6.79418e-007 1.37975e-006 -0.3601 -0.878 4.2331 -5.06901e-015 -5.96354e-015 -3.18055e-015 -1.8127 -1.216 2.2227 -3.23e-006 -6.79418e-007 -1.37975e-006 -0.9571 1.114 1.7695 2.98177e-016 1.98785e-016 -3.18055e-015 -4.1246 0.487 4.1451 3.23e-006 6.79418e-007 1.37975e-006 -3.4052 -1.454 2.7682 -5.1684e-015 -7.05686e-015 -3.18055e-015 -1.4531 -1.795 1.2713 -3.23e-006 -6.79418e-007 -1.37975e-006 -5.6954 0.21 2.1184 3.23e-006 6.79418e-007 1.37975e-006 -3.9766 -1.54 2.3863 -5.1684e-015 -7.05686e-015 -3.18055e-015 -1.4042 -1.926 1.125 -3.23e-006 -6.79418e-007 -1.37975e-006 -2.0956 0.66 -0.3894 2.98177e-016 1.98785e-016 -3.18055e-015 -5.0395 -0.09 2.4971 3.23e-006 6.79418e-007 1.37975e-006 -3.7921 -1.552 1.4806 -5.1684e-015 -7.05686e-015 -3.18055e-015 -1.4655 -1.808 0.9609 -3.23e-006 -6.79418e-007 -1.37975e-006 -4.9141 -1.269 0.3592 3.23e-006 6.79418e-007 1.37975e-006 -3.1477 -1.685 0.8462 -5.1684e-015 -7.05686e-015 -3.18055e-015 -0.8055 -1.585 0.7955 -3.23e-006 -6.79418e-007 -1.37975e-006 8.367 -8.2066 0.5982 36.282 -33.6211 32.2154 2.1923 -43.463 -0.4932 104.749 64.4102 -108.853 0.7333 -45.8593 -2.6451 7.39844 20.0949 -8.54979 -8.367 -8.2066 0.5982 -36.5307 -33.6383 -32.5506 -2.1923 -43.463 -0.4931 -104.747 64.4112 108.856 -0.7333 -45.8593 -2.6451 -7.65571 20.0563 8.72721 
-0.00100912 4.32489 74.4874 -180 -85.9956 -180 0 -1.186 -1.5018 -0.00115923 0.29252 -0.0900088 0 9.964 0.2134 -0.00185898 0.585047 -0.180015 -2.60209e-018 13.134 -3.2573 -0.00185898 0.585044 -0.180015 -1.73472e-018 20.686 -1.6905 -4.37535e-005 14.503 0.000189357 -3.46945e-018 7.238 -0.1237 -8.41659e-008 0.382998 -3.02238e-008 1.7069 20.075 5.0056 -1.90933 -3.51881 1.62435 13.6458 -0.047 -4.849 -80.5407 0.233776 3.26224 28.3255 -0.9759 2.2888 2.33611 -2.55999 -28.1788 22.1583 -0.53 10.8316 -15.9794 4.88887 6.2458 0.786 0.112 2.5817 -3.97569e-016 -4.96962e-016 -0 0.3601 -0.878 4.2331 7.95139e-016 -5.96354e-016 -3.18055e-015 1.8127 -1.216 2.2227 1.59028e-015 -6.95746e-016 -0 0.9571 1.114 1.7695 -7.95139e-016 -4.96962e-016 3.18055e-015 4.1246 0.487 4.1451 -5.96354e-016 1.49089e-015 1.27222e-014 3.4052 -1.454 2.7682 7.95139e-016 7.95139e-016 -6.36111e-015 1.4531 -1.795 1.2713 -1.98785e-016 6.95746e-016 -3.18055e-015 5.6954 0.21 2.1184 -5.96354e-016 1.49089e-015 1.27222e-014 3.9766 -1.54 2.3863 7.95139e-016 7.95139e-016 -6.36111e-015 1.4042 -1.926 1.125 -1.98785e-016 6.95746e-016 -3.18055e-015 2.0956 0.66 -0.3894 -7.95139e-016 -4.96962e-016 3.18055e-015 5.0395 -0.09 2.4971 -5.96354e-016 1.49089e-015 1.27222e-014 3.7921 -1.552 1.4806 7.95139e-016 7.95139e-016 -6.36111e-015 1.4655 -1.808 0.9609 -1.98785e-016 6.95746e-016 -3.18055e-015 4.9141 -1.269 0.3591 -5.96354e-016 1.49089e-015 1.27222e-014 3.1477 -1.685 0.8462 7.95139e-016 7.95139e-016 -6.36111e-015 0.8055 -1.585 0.7955 -1.98785e-016 6.95746e-016 -3.18055e-015 -1.7069 20.075 5.0056 3.1934 -0.121186 -2.59649 -13.6458 -0.047 -4.849 80.3691 0.412682 -3.54715 -28.3255 -0.9759 2.2888 -0.0404296 0.0471539 48.1472 -22.1583 -0.53 10.8316 15.0989 6.44636 -2.68241 -0.786 0.112 2.5817 -2.08724e-015 2.82274e-014 -3.18055e-015 -0.3601 -0.878 4.2331 -4.27387e-015 2.92213e-014 -0 -1.8127 -1.216 2.2227 -6.95746e-016 2.56432e-014 -0 -0.9571 1.114 1.7695 -2.08724e-015 -1.68967e-015 -3.18055e-015 -4.1246 0.487 4.1451 -1.09332e-015 2.82274e-014 9.54166e-015 -3.4052 -1.454 2.7682 3.97569e-016 2.84262e-014 -0 -1.4531 -1.795 1.2713 -2.68359e-015 3.00165e-014 -3.18055e-015 -5.6954 0.21 2.1184 -1.09332e-015 2.82274e-014 9.54166e-015 -3.9766 -1.54 2.3863 3.97569e-016 2.84262e-014 -0 -1.4042 -1.926 1.125 -2.68359e-015 3.00165e-014 -3.18055e-015 -2.0956 0.66 -0.3894 -2.08724e-015 -1.68967e-015 -3.18055e-015 -5.0395 -0.09 2.4971 -1.09332e-015 2.82274e-014 9.54166e-015 -3.7921 -1.552 1.4806 3.97569e-016 2.84262e-014 -0 -1.4655 -1.808 0.9609 -2.68359e-015 3.00165e-014 -3.18055e-015 -4.9141 -1.269 0.3592 -1.09332e-015 2.82274e-014 9.54166e-015 -3.1477 -1.685 0.8462 3.97569e-016 2.84262e-014 -0 -0.8055 -1.585 0.7955 -2.68359e-015 3.00165e-014 -3.18055e-015 8.367 -8.2066 0.5982 35.6679 -33.6567 31.5064 2.1923 -43.463 -0.4932 104.745 64.4096 -108.833 0.7333 -45.8593 -2.6451 6.78018 20.0643 -8.0595 -8.367 -8.2066 0.5982 -35.8943 -33.6748 -31.8115 -2.1923 -43.463 -0.4931 -104.744 64.4105 108.835 -0.7333 -45.8593 -2.6451 -7.01447 20.0309 8.22065 
-0.00091929 4.32416 74.4871 -180 -85.9956 -180 0 -1.186 -1.5018 -0.00102738 0.2473 -0.0899665 4.33681e-019 9.964 0.2134 -0.0016664 0.494611 -0.179931 -1.73472e-018 13.134 -3.2573 -0.00166648 0.494605 -0.179931 -3.46945e-018 20.686 -1.6905 -3.84977e-006 15.2549 1.55116e-005 -3.46945e-018 7.238 -0.1237 -1.30889e-008 1.24763 -6.3483e-008 1.7069 20.075 5.0056 -2.52192 -3.19344 1.44633 13.6458 -0.047 -4.849 -80.0948 0.167517 3.11669 28.3255 -0.9759 2.2888 2.43391 -2.67339 -27.7555 22.1583 -0.53 10.8316 -15.9004 5.03073 5.90294 0.786 0.112 2.5817 -0 -2.88238e-015 -0 0.3601 -0.878 4.2331 -7.95139e-016 -2.5842e-015 9.54166e-015 1.8127 -1.216 2.2227 -2.18663e-015 -2.78299e-015 6.36111e-015 0.9571 1.114 1.7695 1.59028e-015 -7.95139e-016 -0 4.1246 0.487 4.1451 1.98785e-016 -1.78906e-015 3.18055e-015 3.4052 -1.454 2.7682 -1.19271e-015 -3.77691e-015 9.54166e-015 1.4531 -1.795 1.2713 -3.97569e-016 -3.37934e-015 3.18055e-015 5.6954 0.21 2.1184 1.98785e-016 -1.78906e-015 3.18055e-015 3.9766 -1.54 2.3863 -1.19271e-015 -3.77691e-015 9.54166e-015 1.4042 -1.926 1.125 -3.97569e-016 -3.37934e-015 3.18055e-015 2.0956 0.66 -0.3894 1.59028e-015 -7.95139e-016 -0 5.0395 -0.09 2.4971 1.98785e-016 -1.78906e-015 3.18055e-015 3.7921 -1.552 1.4806 -1.19271e-015 -3.77691e-015 9.54166e-015 1.4655 -1.808 0.9609 -3.97569e-016 -3.37934e-015 3.18055e-015 4.9141 -1.269 0.3591 1.98785e-016 -1.78906e-015 3.18055e-015 3.1477 -1.685 0.8462 -1.19271e-015 -3.77691e-015 9.54166e-015 0.8055 -1.585 0.7955 -3.97569e-016 -3.37934e-015 3.18055e-015 -1.7069 20.075 5.0056 3.67127 -0.138187 -2.3383 -13.6458 -0.047 -4.849 79.9589 0.33057 -3.29939 -28.3255 -0.9759 2.2888 -0.128423 -0.137901 47.5348 -22.1583 -0.53 10.8316 15.0989 6.44635 -2.68242 -0.786 0.112 2.5817 -7.15625e-015 -8.24956e-015 -3.18055e-015 -0.3601 -0.878 4.2331 -7.65321e-015 -9.0447e-015 -6.36111e-015 -1.8127 -1.216 2.2227 -7.95139e-015 -7.65321e-015 -0 -0.9571 1.114 1.7695 7.95139e-016 0 -0 -4.1246 0.487 4.1451 -6.26172e-015 -6.65929e-015 6.36111e-015 -3.4052 -1.454 2.7682 -7.25564e-015 -8.15017e-015 -3.18055e-015 -1.4531 -1.795 1.2713 -6.95746e-015 -7.45443e-015 -3.18055e-015 -5.6954 0.21 2.1184 -6.26172e-015 -6.65929e-015 6.36111e-015 -3.9766 -1.54 2.3863 -7.25564e-015 -8.15017e-015 -3.18055e-015 -1.4042 -1.926 1.125 -6.95746e-015 -7.45443e-015 -3.18055e-015 -2.0956 0.66 -0.3894 7.95139e-016 0 -0 -5.0395 -0.09 2.4971 -6.26172e-015 -6.65929e-015 6.36111e-015 -3.7921 -1.552 1.4806 -7.25564e-015 -8.15017e-015 -3.18055e-015 -1.4655 -1.808 0.9609 -6.95746e-015 -7.45443e-015 -3.18055e-015 -4.9141 -1.269 0.3592 -6.26172e-015 -6.65929e-015 6.36111e-015 -3.1477 -1.685 0.8462 -7.25564e-015 -8.15017e-015 -3.18055e-015 -0.8055 -1.585 0.7955 -6.95746e-015 -7.45443e-015 -3.18055e-015 8.367 -8.2066 0.5982 35.0532 -33.6861 30.7969 2.1923 -43.463 -0.4932 104.742 64.409 -108.814 0.7333 -45.8593 -2.6451 6.16242 20.0287 -7.56966 -8.367 -8.2066 0.5982 -35.2572 -33.7045 -31.0717 -2.1923 -43.463 -0.4931 -104.741 64.4098 108.815 -0.7333 -45.8593 -2.6451 -6.37371 20.0002 7.7145 
